Oswald--500.ufo
<glyph name="percent" format="1">
  <advance width="1980"/>
  <unicode hex="0025"/>
  <outline>
    <contour>
      <point x="442" y="938" type="curve" smooth="yes"/>
      <point x="337" y="938"/>
      <point x="323" y="1035"/>
      <point x="323" y="1163" type="curve" smooth="yes"/>
      <point x="323" y="1254" type="line" smooth="yes"/>
      <point x="323" y="1384"/>
      <point x="332" y="1468"/>
      <point x="442" y="1468" type="curve" smooth="yes"/>
      <point x="552" y="1468"/>
      <point x="562" y="1386"/>
      <point x="562" y="1255" type="curve" smooth="yes"/>
      <point x="562" y="1165" type="line" smooth="yes"/>
      <point x="562" y="1036"/>
      <point x="549" y="938"/>
    </contour>
    <contour>
      <point x="442" y="744" type="curve" smooth="yes"/>
      <point x="702" y="744"/>
      <point x="805" y="889"/>
      <point x="805" y="1159" type="curve" smooth="yes"/>
      <point x="805" y="1260" type="line" smooth="yes"/>
      <point x="805" y="1533"/>
      <point x="705" y="1665"/>
      <point x="442" y="1665" type="curve" smooth="yes"/>
      <point x="177" y="1665"/>
      <point x="81" y="1527"/>
      <point x="81" y="1252" type="curve" smooth="yes"/>
      <point x="81" y="1164" type="line" smooth="yes"/>
      <point x="81" y="895"/>
      <point x="183" y="744"/>
    </contour>
    <contour>
      <point x="1537" y="188" type="curve" smooth="yes"/>
      <point x="1432" y="188"/>
      <point x="1418" y="284"/>
      <point x="1418" y="413" type="curve" smooth="yes"/>
      <point x="1418" y="503" type="line" smooth="yes"/>
      <point x="1418" y="633"/>
      <point x="1427" y="718"/>
      <point x="1537" y="718" type="curve" smooth="yes"/>
      <point x="1648" y="718"/>
      <point x="1657" y="636"/>
      <point x="1657" y="504" type="curve" smooth="yes"/>
      <point x="1657" y="414" type="line" smooth="yes"/>
      <point x="1657" y="286"/>
      <point x="1645" y="188"/>
    </contour>
    <contour>
      <point x="1537" y="-7" type="curve" smooth="yes"/>
      <point x="1797" y="-7"/>
      <point x="1900" y="138"/>
      <point x="1900" y="408" type="curve" smooth="yes"/>
      <point x="1900" y="510" type="line" smooth="yes"/>
      <point x="1900" y="783"/>
      <point x="1800" y="914"/>
      <point x="1537" y="914" type="curve" smooth="yes"/>
      <point x="1272" y="914"/>
      <point x="1176" y="776"/>
      <point x="1176" y="501" type="curve" smooth="yes"/>
      <point x="1176" y="413" type="line" smooth="yes"/>
      <point x="1176" y="144"/>
      <point x="1278" y="-7"/>
    </contour>
    <contour>
      <point x="658" y="0" type="line"/>
      <point x="855" y="0" type="line"/>
      <point x="1323" y="1658" type="line"/>
      <point x="1126" y="1658" type="line"/>
    </contour>
  </outline>
</glyph>
<glyph name="quotesingle" format="1">
  <advance width="653"/>
  <unicode hex="0027"/>
  <outline>
    <contour>
      <point x="138" y="1100" type="line"/>
      <point x="281" y="1100" type="line"/>
      <point x="376" y="1658" type="line"/>
      <point x="138" y="1658" type="line"/>
    </contour>
  </outline>
</glyph>
<glyph name="parenright" format="1">
  <advance width="593"/>
  <unicode hex="0029"/>
  <outline>
    <contour>
      <point x="65" y="-393" type="line"/>
      <point x="492" y="-395"/>
      <point x="514" y="131"/>
      <point x="514" y="639" type="curve" smooth="yes"/>
      <point x="514" y="1163"/>
      <point x="492" y="1676"/>
      <point x="65" y="1675" type="curve"/>
      <point x="65" y="1484" type="line"/>
      <point x="240" y="1484"/>
      <point x="251" y="1095"/>
      <point x="251" y="639" type="curve" smooth="yes"/>
      <point x="251" y="184"/>
      <point x="236" y="-202"/>
      <point x="65" y="-202" type="curve"/>
    </contour>
  </outline>
</glyph>
<glyph name="comma" format="1">
  <advance width="430"/>
  <unicode hex="002C"/>
  <outline>
    <contour>
      <point x="124" y="-281" type="line"/>
      <point x="279" y="-250"/>
      <point x="356" y="-153"/>
      <point x="356" y="19" type="curve" smooth="yes"/>
      <point x="356" y="271" type="line"/>
      <point x="81" y="271" type="line"/>
      <point x="81" y="0" type="line"/>
      <point x="228" y="0" type="line"/>
      <point x="228" y="-98"/>
      <point x="168" y="-157"/>
      <point x="94" y="-176" type="curve"/>
    </contour>
  </outline>
</glyph>
<glyph name="one" format="1">
  <advance width="1025"/>
  <unicode hex="0031"/>
  <outline>
    <contour>
      <point x="444" y="0" type="line"/>
      <point x="728" y="0" type="line"/>
      <point x="728" y="1658" type="line"/>
      <point x="511" y="1658" type="line"/>
      <point x="438" y="1570"/>
      <point x="258" y="1505"/>
      <point x="177" y="1478" type="curve"/>
      <point x="177" y="1266" type="line"/>
      <point x="444" y="1337" type="line"/>
    </contour>
  </outline>
</glyph>
<glyph name="nine" format="1">
  <advance width="1042"/>
  <unicode hex="0039"/>
  <outline>
    <contour>
      <point x="517" y="-20" type="curve" smooth="yes"/>
      <point x="859" y="-20"/>
      <point x="951" y="245"/>
      <point x="951" y="570" type="curve" smooth="yes"/>
      <point x="951" y="1137" type="line" smooth="yes"/>
      <point x="951" y="1443"/>
      <point x="824" y="1677"/>
      <point x="518" y="1677" type="curve" smooth="yes"/>
      <point x="204" y="1677"/>
      <point x="86" y="1441"/>
      <point x="86" y="1120" type="curve" smooth="yes"/>
      <point x="86" y="850"/>
      <point x="172" y="634"/>
      <point x="443" y="637" type="curve" smooth="yes"/>
      <point x="548" y="638"/>
      <point x="625" y="678"/>
      <point x="664" y="744" type="curve"/>
      <point x="664" y="548" type="line" smooth="yes"/>
      <point x="664" y="302"/>
      <point x="626" y="203"/>
      <point x="519" y="203" type="curve" smooth="yes"/>
      <point x="398" y="203"/>
      <point x="374" y="282"/>
      <point x="374" y="421" type="curve"/>
      <point x="99" y="421" type="line"/>
      <point x="99" y="418"/>
      <point x="99" y="405"/>
      <point x="99" y="401" type="curve" smooth="yes"/>
      <point x="103" y="132"/>
      <point x="231" y="-20"/>
    </contour>
    <contour>
      <point x="520" y="852" type="curve" smooth="yes"/>
      <point x="373" y="852"/>
      <point x="373" y="1000"/>
      <point x="373" y="1168" type="curve" smooth="yes"/>
      <point x="373" y="1328"/>
      <point x="399" y="1457"/>
      <point x="518" y="1457" type="curve" smooth="yes"/>
      <point x="637" y="1457"/>
      <point x="664" y="1327"/>
      <point x="664" y="1198" type="curve" smooth="yes"/>
      <point x="664" y="948" type="line"/>
      <point x="639" y="901"/>
      <point x="595" y="852"/>
    </contour>
  </outline>
</glyph>
<glyph name="colon" format="1">
  <advance width="476"/>
  <unicode hex="003A"/>
  <outline>
    <contour>
      <point x="126" y="166" type="line"/>
      <point x="396" y="166" type="line"/>
      <point x="396" y="435" type="line"/>
      <point x="126" y="435" type="line"/>
    </contour>
    <contour>
      <point x="126" y="843" type="line"/>
      <point x="396" y="843" type="line"/>
      <point x="396" y="1113" type="line"/>
      <point x="126" y="1113" type="line"/>
    </contour>
  </outline>
</glyph>
<glyph name="A" format="1">
  <advance width="1065"/>
  <unicode hex="0041"/>
  <outline>
    <contour>
      <point x="38" y="0" type="line"/>
      <point x="323" y="0" type="line"/>
      <point x="391" y="385" type="line"/>
      <point x="678" y="385" type="line"/>
      <point x="745" y="0" type="line"/>
      <point x="1026" y="0" type="line"/>
      <point x="690" y="1658" type="line"/>
      <point x="375" y="1658" type="line"/>
    </contour>
    <contour>
      <point x="423" y="582" type="line"/>
      <point x="534" y="1263" type="line"/>
      <point x="645" y="582" type="line"/>
    </contour>
  </outline>
</glyph>
<glyph name="F" format="1">
  <advance width="840"/>
  <unicode hex="0046"/>
  <outline>
    <contour>
      <point x="124" y="0" type="line"/>
      <point x="426" y="0" type="line"/>
      <point x="426" y="754" type="line"/>
      <point x="729" y="754" type="line"/>
      <point x="729" y="967" type="line"/>
      <point x="426" y="967" type="line"/>
      <point x="426" y="1449" type="line"/>
      <point x="805" y="1449" type="line"/>
      <point x="805" y="1658" type="line"/>
      <point x="124" y="1658" type="line"/>
    </contour>
  </outline>
</glyph>
<glyph name="G" format="1">
  <advance width="1142"/>
  <unicode hex="0047"/>
  <outline>
    <contour>
      <point x="539" y="-22" type="curve" smooth="yes"/>
      <point x="694" y="-22"/>
      <point x="777" y="59"/>
      <point x="820" y="168" type="curve"/>
      <point x="842" y="0" type="line"/>
      <point x="1038" y="0" type="line"/>
      <point x="1038" y="842" type="line"/>
      <point x="587" y="842" type="line"/>
      <point x="587" y="647" type="line"/>
      <point x="766" y="647" type="line"/>
      <point x="766" y="511" type="line" smooth="yes"/>
      <point x="766" y="319"/>
      <point x="728" y="204"/>
      <point x="581" y="204" type="curve" smooth="yes"/>
      <point x="434" y="204"/>
      <point x="403" y="309"/>
      <point x="403" y="493" type="curve" smooth="yes"/>
      <point x="403" y="1162" type="line" smooth="yes"/>
      <point x="403" y="1321"/>
      <point x="410" y="1454"/>
      <point x="573" y="1454" type="curve" smooth="yes"/>
      <point x="726" y="1454"/>
      <point x="740" y="1359"/>
      <point x="740" y="1196" type="curve" smooth="yes"/>
      <point x="740" y="1110" type="line"/>
      <point x="1029" y="1110" type="line"/>
      <point x="1029" y="1191" type="line" smooth="yes"/>
      <point x="1029" y="1506"/>
      <point x="907" y="1677"/>
      <point x="569" y="1677" type="curve" smooth="yes"/>
      <point x="203" y="1677"/>
      <point x="97" y="1459"/>
      <point x="97" y="1093" type="curve" smooth="yes"/>
      <point x="97" y="553" type="line" smooth="yes"/>
      <point x="97" y="195"/>
      <point x="214" y="-22"/>
    </contour>
  </outline>
</glyph>
<glyph name="R" format="1">
  <advance width="1136"/>
  <unicode hex="0052"/>
  <outline>
    <contour>
      <point x="124" y="0" type="line"/>
      <point x="426" y="0" type="line"/>
      <point x="426" y="757" type="line"/>
      <point x="560" y="757" type="line"/>
      <point x="758" y="0" type="line"/>
      <point x="1061" y="0" type="line"/>
      <point x="831" y="817" type="line"/>
      <point x="979" y="879"/>
      <point x="1031" y="1017"/>
      <point x="1031" y="1216" type="curve" smooth="yes"/>
      <point x="1031" y="1555"/>
      <point x="840" y="1658"/>
      <point x="504" y="1658" type="curve" smooth="yes"/>
      <point x="124" y="1658" type="line"/>
    </contour>
    <contour>
      <point x="426" y="950" type="line"/>
      <point x="426" y="1450" type="line"/>
      <point x="517" y="1450" type="line" smooth="yes"/>
      <point x="697" y="1450"/>
      <point x="746" y="1373"/>
      <point x="746" y="1202" type="curve" smooth="yes"/>
      <point x="746" y="1016"/>
      <point x="676" y="950"/>
      <point x="499" y="950" type="curve" smooth="yes"/>
    </contour>
  </outline>
</glyph>
<glyph name="Y" format="1">
  <advance width="1001"/>
  <unicode hex="0059"/>
  <unicode hex="04AE"/>
  <outline>
    <contour>
      <point x="357" y="0" type="line"/>
      <point x="645" y="0" type="line"/>
      <point x="645" y="631" type="line"/>
      <point x="981" y="1658" type="line"/>
      <point x="702" y="1658" type="line"/>
      <point x="506" y="998" type="line"/>
      <point x="301" y="1658" type="line"/>
      <point x="19" y="1658" type="line"/>
      <point x="357" y="631" type="line"/>
    </contour>
  </outline>
</glyph>
<glyph name="backslash" format="1">
  <advance width="812"/>
  <unicode hex="005C"/>
  <outline>
    <contour>
      <point x="543" y="0" type="line"/>
      <point x="737" y="0" type="line"/>
      <point x="268" y="1658" type="line"/>
      <point x="73" y="1658" type="line"/>
    </contour>
  </outline>
</glyph>
<glyph name="bracketright" format="1">
  <advance width="655"/>
  <unicode hex="005D"/>
  <outline>
    <contour>
      <point x="45" y="-386" type="line"/>
      <point x="538" y="-386" type="line"/>
      <point x="538" y="1658" type="line"/>
      <point x="45" y="1658" type="line"/>
      <point x="45" y="1534" type="line"/>
      <point x="289" y="1534" type="line"/>
      <point x="290" y="-262" type="line"/>
      <point x="45" y="-262" type="line"/>
    </contour>
  </outline>
</glyph>
<glyph name="a" format="1">
  <advance width="927"/>
  <unicode hex="0061"/>
  <outline>
    <contour>
      <point x="335" y="-19" type="curve"/>
      <point x="467" y="-19"/>
      <point x="540" y="78"/>
      <point x="569" y="174" type="curve"/>
      <point x="575" y="116"/>
      <point x="598" y="0"/>
      <point x="598" y="0" type="curve"/>
      <point x="851" y="0" type="line"/>
      <point x="841" y="73"/>
      <point x="829" y="163"/>
      <point x="829" y="297" type="curve" smooth="yes"/>
      <point x="829" y="838" type="line" smooth="yes"/>
      <point x="829" y="1062"/>
      <point x="725" y="1202"/>
      <point x="485" y="1202" type="curve" smooth="yes"/>
      <point x="249" y="1202"/>
      <point x="113" y="1095"/>
      <point x="96" y="842" type="curve" smooth="yes"/>
      <point x="96" y="832"/>
      <point x="95" y="810"/>
      <point x="95" y="799" type="curve"/>
      <point x="363" y="789" type="line"/>
      <point x="367" y="863" type="line"/>
      <point x="368" y="935"/>
      <point x="388" y="993"/>
      <point x="462" y="993" type="curve" smooth="yes"/>
      <point x="543" y="993"/>
      <point x="556" y="935"/>
      <point x="556" y="839" type="curve" smooth="yes"/>
      <point x="556" y="740" type="line"/>
      <point x="347" y="657"/>
      <point x="80" y="577"/>
      <point x="80" y="264" type="curve" smooth="yes"/>
      <point x="80" y="126"/>
      <point x="179" y="-17"/>
    </contour>
    <contour>
      <point x="442" y="198" type="curve" smooth="yes"/>
      <point x="382" y="198"/>
      <point x="348" y="251"/>
      <point x="348" y="336" type="curve" smooth="yes"/>
      <point x="348" y="455"/>
      <point x="455" y="541"/>
      <point x="556" y="597" type="curve"/>
      <point x="556" y="271" type="line"/>
      <point x="538" y="247"/>
      <point x="490" y="198"/>
    </contour>
  </outline>
</glyph>
<glyph name="c" format="1">
  <advance width="899"/>
  <unicode hex="0063"/>
  <outline>
    <contour>
      <point x="462" y="-19" type="curve" smooth="yes"/>
      <point x="713" y="-19"/>
      <point x="822" y="110"/>
      <point x="822" y="351" type="curve" smooth="yes"/>
      <point x="822" y="463" type="line"/>
      <point x="561" y="463" type="line"/>
      <point x="561" y="336" type="line" smooth="yes"/>
      <point x="561" y="241"/>
      <point x="544" y="181"/>
      <point x="465" y="181" type="curve" smooth="yes"/>
      <point x="394" y="181"/>
      <point x="365" y="218"/>
      <point x="365" y="373" type="curve" smooth="yes"/>
      <point x="365" y="805" type="line" smooth="yes"/>
      <point x="365" y="955"/>
      <point x="386" y="1003"/>
      <point x="465" y="1003" type="curve" smooth="yes"/>
      <point x="536" y="1003"/>
      <point x="561" y="962"/>
      <point x="561" y="842" type="curve" smooth="yes"/>
      <point x="561" y="741" type="line"/>
      <point x="822" y="741" type="line"/>
      <point x="822" y="837" type="line" smooth="yes"/>
      <point x="822" y="1082"/>
      <point x="718" y="1202"/>
      <point x="462" y="1202" type="curve" smooth="yes"/>
      <point x="183" y="1202"/>
      <point x="85" y="1035"/>
      <point x="85" y="764" type="curve" smooth="yes"/>
      <point x="85" y="421" type="line" smooth="yes"/>
      <point x="85" y="150"/>
      <point x="182" y="-19"/>
    </contour>
  </outline>
</glyph>
<glyph name="d" format="1">
  <advance width="969"/>
  <unicode hex="0064"/>
  <outline>
    <contour>
      <point x="376" y="-19" type="curve" smooth="yes"/>
      <point x="452" y="-18"/>
      <point x="522" y="19"/>
      <point x="582" y="81" type="curve"/>
      <point x="582" y="0" type="line"/>
      <point x="862" y="0" type="line"/>
      <point x="862" y="1658" type="line"/>
      <point x="582" y="1658" type="line"/>
      <point x="582" y="1111" type="line"/>
      <point x="525" y="1164"/>
      <point x="453" y="1202"/>
      <point x="372" y="1202" type="curve" smooth="yes"/>
      <point x="154" y="1202"/>
      <point x="87" y="996"/>
      <point x="87" y="755" type="curve" smooth="yes"/>
      <point x="87" y="411" type="line" smooth="yes"/>
      <point x="87" y="107"/>
      <point x="186" y="-19"/>
    </contour>
    <contour>
      <point x="474" y="181" type="curve" smooth="yes"/>
      <point x="384" y="181"/>
      <point x="368" y="277"/>
      <point x="368" y="390" type="curve" smooth="yes"/>
      <point x="368" y="824" type="line" smooth="yes"/>
      <point x="368" y="917"/>
      <point x="392" y="1005"/>
      <point x="473" y="1005" type="curve" smooth="yes"/>
      <point x="511" y="1005"/>
      <point x="549" y="990"/>
      <point x="582" y="969" type="curve"/>
      <point x="582" y="213" type="line"/>
      <point x="543" y="191"/>
      <point x="504" y="181"/>
    </contour>
  </outline>
</glyph>
<glyph name="h" format="1">
  <advance width="980"/>
  <unicode hex="0068"/>
  <outline>
    <contour>
      <point x="112" y="0" type="line"/>
      <point x="391" y="0" type="line"/>
      <point x="391" y="935" type="line"/>
      <point x="435" y="968"/>
      <point x="482" y="992"/>
      <point x="521" y="993" type="curve" smooth="yes"/>
      <point x="587" y="994"/>
      <point x="600" y="951"/>
      <point x="600" y="884" type="curve" smooth="yes"/>
      <point x="600" y="0" type="line"/>
      <point x="879" y="0" type="line"/>
      <point x="879" y="946" type="line" smooth="yes"/>
      <point x="879" y="1073"/>
      <point x="831" y="1202"/>
      <point x="686" y="1202" type="curve" smooth="yes"/>
      <point x="571" y="1202"/>
      <point x="475" y="1149"/>
      <point x="391" y="1069" type="curve"/>
      <point x="391" y="1658" type="line"/>
      <point x="112" y="1658" type="line"/>
    </contour>
  </outline>
</glyph>
<glyph name="m" format="1">
  <advance width="1469"/>
  <unicode hex="006D"/>
  <outline>
    <contour>
      <point x="107" y="0" type="line"/>
      <point x="373" y="0" type="line"/>
      <point x="373" y="948" type="line"/>
      <point x="422" y="991"/>
      <point x="476" y="1017"/>
      <point x="521" y="1018" type="curve" smooth="yes"/>
      <point x="575" y="1019"/>
      <point x="607" y="990"/>
      <point x="607" y="900" type="curve" smooth="yes"/>
      <point x="607" y="0" type="line"/>
      <point x="872" y="0" type="line"/>
      <point x="872" y="924" type="line" smooth="yes"/>
      <point x="872" y="933"/>
      <point x="871" y="941"/>
      <point x="871" y="949" type="curve"/>
      <point x="917" y="991"/>
      <point x="973" y="1017"/>
      <point x="1018" y="1018" type="curve" smooth="yes"/>
      <point x="1072" y="1019"/>
      <point x="1103" y="990"/>
      <point x="1103" y="900" type="curve" smooth="yes"/>
      <point x="1103" y="0" type="line"/>
      <point x="1369" y="0" type="line"/>
      <point x="1369" y="924" type="line" smooth="yes"/>
      <point x="1369" y="1113"/>
      <point x="1277" y="1205"/>
      <point x="1150" y="1205" type="curve" smooth="yes"/>
      <point x="1043" y="1205"/>
      <point x="940" y="1163"/>
      <point x="851" y="1060" type="curve"/>
      <point x="817" y="1161"/>
      <point x="743" y="1205"/>
      <point x="654" y="1205" type="curve" smooth="yes"/>
      <point x="554" y="1205"/>
      <point x="457" y="1168"/>
      <point x="373" y="1080" type="curve"/>
      <point x="373" y="1184" type="line"/>
      <point x="107" y="1184" type="line"/>
    </contour>
  </outline>
</glyph>
<glyph name="r" format="1">
  <advance width="710"/>
  <unicode hex="0072"/>
  <outline>
    <contour>
      <point x="111" y="0" type="line"/>
      <point x="391" y="0" type="line"/>
      <point x="391" y="812" type="line"/>
      <point x="450" y="902"/>
      <point x="508" y="932"/>
      <point x="585" y="935" type="curve" smooth="yes"/>
      <point x="619" y="935"/>
      <point x="656" y="927"/>
      <point x="682" y="917" type="curve"/>
      <point x="682" y="1194" type="line"/>
      <point x="665" y="1198"/>
      <point x="653" y="1199"/>
      <point x="640" y="1199" type="curve" smooth="yes"/>
      <point x="552" y="1199"/>
      <point x="472" y="1146"/>
      <point x="391" y="1002" type="curve"/>
      <point x="391" y="1184" type="line"/>
      <point x="111" y="1184" type="line"/>
    </contour>
  </outline>
</glyph>
<glyph name="s" format="1">
  <advance width="812"/>
  <unicode hex="0073"/>
  <outline>
    <contour>
      <point x="414" y="-19" type="curve" smooth="yes"/>
      <point x="612" y="-19"/>
      <point x="768" y="88"/>
      <point x="768" y="296" type="curve" smooth="yes"/>
      <point x="768" y="446"/>
      <point x="676" y="539"/>
      <point x="585" y="619" type="curve"/>
      <point x="423" y="766" type="line" smooth="yes"/>
      <point x="369" y="813"/>
      <point x="323" y="864"/>
      <point x="324" y="907" type="curve" smooth="yes"/>
      <point x="324" y="956"/>
      <point x="359" y="1003"/>
      <point x="421" y="1001" type="curve" smooth="yes"/>
      <point x="502" y="1000"/>
      <point x="543" y="913"/>
      <point x="563" y="816" type="curve"/>
      <point x="747" y="893" type="line"/>
      <point x="714" y="1073"/>
      <point x="600" y="1202"/>
      <point x="408" y="1202" type="curve" smooth="yes"/>
      <point x="217" y="1202"/>
      <point x="77" y="1083"/>
      <point x="73" y="891" type="curve"/>
      <point x="70" y="755"/>
      <point x="155" y="656"/>
      <point x="241" y="582" type="curve" smooth="yes"/>
      <point x="400" y="446" type="line" smooth="yes"/>
      <point x="462" y="393"/>
      <point x="514" y="333"/>
      <point x="517" y="285" type="curve" smooth="yes"/>
      <point x="520" y="226"/>
      <point x="477" y="180"/>
      <point x="418" y="179" type="curve" smooth="yes"/>
      <point x="336" y="176"/>
      <point x="285" y="249"/>
      <point x="256" y="376" type="curve"/>
      <point x="44" y="299" type="line"/>
      <point x="90" y="96"/>
      <point x="217" y="-19"/>
    </contour>
  </outline>
</glyph>
<glyph name="v" format="1">
  <advance width="826"/>
  <unicode hex="0076"/>
  <outline>
    <contour>
      <point x="257" y="0" type="line"/>
      <point x="574" y="0" type="line"/>
      <point x="803" y="1184" type="line"/>
      <point x="533" y="1184" type="line"/>
      <point x="417" y="325" type="line"/>
      <point x="300" y="1184" type="line"/>
      <point x="26" y="1184" type="line"/>
    </contour>
  </outline>
</glyph>
<glyph name="braceright" format="1">
  <advance width="727"/>
  <unicode hex="007D"/>
  <outline>
    <contour>
      <point x="88" y="-403" type="line"/>
      <point x="481" y="-403"/>
      <point x="513" y="-326"/>
      <point x="513" y="21" type="curve" smooth="yes"/>
      <point x="513" y="260" type="line" smooth="yes"/>
      <point x="513" y="513"/>
      <point x="526" y="542"/>
      <point x="638" y="542" type="curve"/>
      <point x="638" y="738" type="line"/>
      <point x="526" y="738"/>
      <point x="513" y="767"/>
      <point x="513" y="1020" type="curve" smooth="yes"/>
      <point x="513" y="1259" type="line" smooth="yes"/>
      <point x="513" y="1606"/>
      <point x="481" y="1683"/>
      <point x="88" y="1683" type="curve"/>
      <point x="88" y="1486" type="line"/>
      <point x="228" y="1486"/>
      <point x="236" y="1460"/>
      <point x="236" y="1251" type="curve" smooth="yes"/>
      <point x="236" y="985" type="line" smooth="yes"/>
      <point x="236" y="768"/>
      <point x="285" y="665"/>
      <point x="394" y="640" type="curve"/>
      <point x="285" y="615"/>
      <point x="236" y="512"/>
      <point x="236" y="295" type="curve" smooth="yes"/>
      <point x="236" y="29" type="line" smooth="yes"/>
      <point x="236" y="-180"/>
      <point x="228" y="-206"/>
      <point x="88" y="-206" type="curve"/>
    </contour>
  </outline>
</glyph>
<glyph name="exclamdown" format="1">
  <advance width="453"/>
  <unicode hex="00A1"/>
  <outline>
    <contour>
      <point x="87" y="-339" type="line"/>
      <point x="365" y="-339" type="line"/>
      <point x="280" y="933" type="line"/>
      <point x="183" y="933" type="line"/>
    </contour>
    <contour>
      <point x="97" y="1047" type="line"/>
      <point x="368" y="1047" type="line"/>
      <point x="368" y="1317" type="line"/>
      <point x="97" y="1317" type="line"/>
    </contour>
  </outline>
</glyph>
<glyph name="cent" format="1">
  <advance width="857"/>
  <unicode hex="00A2"/>
  <outline>
    <contour>
      <point x="397" y="-201" type="line"/>
      <point x="475" y="-201" type="line"/>
      <point x="475" y="-18" type="line"/>
      <point x="719" y="-14"/>
      <point x="820" y="115"/>
      <point x="820" y="351" type="curve" smooth="yes"/>
      <point x="820" y="463" type="line"/>
      <point x="559" y="463" type="line"/>
      <point x="559" y="339" type="line" smooth="yes"/>
      <point x="559" y="244"/>
      <point x="542" y="185"/>
      <point x="464" y="185" type="curve" smooth="yes"/>
      <point x="392" y="185"/>
      <point x="363" y="221"/>
      <point x="363" y="376" type="curve" smooth="yes"/>
      <point x="363" y="801" type="line" smooth="yes"/>
      <point x="363" y="952"/>
      <point x="384" y="1000"/>
      <point x="463" y="1000" type="curve" smooth="yes"/>
      <point x="534" y="1000"/>
      <point x="559" y="959"/>
      <point x="559" y="839" type="curve" smooth="yes"/>
      <point x="559" y="741" type="line"/>
      <point x="820" y="741" type="line"/>
      <point x="820" y="837" type="line" smooth="yes"/>
      <point x="820" y="1078"/>
      <point x="723" y="1197"/>
      <point x="475" y="1201" type="curve"/>
      <point x="475" y="1383" type="line"/>
      <point x="397" y="1383" type="line"/>
      <point x="397" y="1199" type="line"/>
      <point x="167" y="1174"/>
      <point x="83" y="1013"/>
      <point x="83" y="764" type="curve" smooth="yes"/>
      <point x="83" y="421" type="line" smooth="yes"/>
      <point x="83" y="171"/>
      <point x="167" y="9"/>
      <point x="397" y="-15" type="curve"/>
    </contour>
  </outline>
</glyph>
<glyph name="copyright" format="1">
  <advance width="1784"/>
  <unicode hex="00A9"/>
  <outline>
    <contour>
      <point x="895" y="254" type="curve" smooth="yes"/>
      <point x="1171" y="254"/>
      <point x="1290" y="385"/>
      <point x="1290" y="629" type="curve" smooth="yes"/>
      <point x="1290" y="712" type="line"/>
      <point x="1008" y="712" type="line"/>
      <point x="1008" y="616" type="line" smooth="yes"/>
      <point x="1008" y="519"/>
      <point x="986" y="457"/>
      <point x="899" y="457" type="curve" smooth="yes"/>
      <point x="820" y="457"/>
      <point x="783" y="494"/>
      <point x="783" y="654" type="curve" smooth="yes"/>
      <point x="783" y="1034" type="line" smooth="yes"/>
      <point x="783" y="1188"/>
      <point x="811" y="1238"/>
      <point x="898" y="1238" type="curve" smooth="yes"/>
      <point x="977" y="1238"/>
      <point x="1008" y="1195"/>
      <point x="1008" y="1072" type="curve" smooth="yes"/>
      <point x="1008" y="989" type="line"/>
      <point x="1290" y="989" type="line"/>
      <point x="1290" y="1071" type="line" smooth="yes"/>
      <point x="1290" y="1319"/>
      <point x="1177" y="1440"/>
      <point x="895" y="1440" type="curve" smooth="yes"/>
      <point x="588" y="1440"/>
      <point x="481" y="1270"/>
      <point x="481" y="995" type="curve" smooth="yes"/>
      <point x="481" y="701" type="line" smooth="yes"/>
      <point x="481" y="425"/>
      <point x="587" y="254"/>
    </contour>
    <contour>
      <point x="897" y="65" type="curve" smooth="yes"/>
      <point x="396" y="65"/>
      <point x="177" y="451"/>
      <point x="177" y="838" type="curve" smooth="yes"/>
      <point x="177" y="1227"/>
      <point x="396" y="1608"/>
      <point x="897" y="1608" type="curve" smooth="yes"/>
      <point x="1396" y="1608"/>
      <point x="1616" y="1227"/>
      <point x="1616" y="838" type="curve" smooth="yes"/>
      <point x="1616" y="451"/>
      <point x="1396" y="65"/>
    </contour>
    <contour>
      <point x="893" y="-24" type="curve" smooth="yes"/>
      <point x="1477" y="-24"/>
      <point x="1712" y="422"/>
      <point x="1712" y="838" type="curve" smooth="yes"/>
      <point x="1712" y="1254"/>
      <point x="1475" y="1700"/>
      <point x="893" y="1700" type="curve" smooth="yes"/>
      <point x="309" y="1700"/>
      <point x="72" y="1254"/>
      <point x="72" y="838" type="curve" smooth="yes"/>
      <point x="72" y="424"/>
      <point x="309" y="-24"/>
    </contour>
  </outline>
</glyph>
<glyph name="twosuperior" format="1">
  <advance width="896"/>
  <unicode hex="00B2"/>
  <outline>
    <contour>
      <point x="161" y="618" type="line"/>
      <point x="757" y="618" type="line"/>
      <point x="757" y="786" type="line"/>
      <point x="401" y="786" type="line"/>
      <point x="645" y="1162" type="line" smooth="yes"/>
      <point x="717" y="1274"/>
      <point x="788" y="1367"/>
      <point x="788" y="1522" type="curve" smooth="yes"/>
      <point x="788" y="1720"/>
      <point x="683" y="1839"/>
      <point x="479" y="1839" type="curve" smooth="yes"/>
      <point x="254" y="1839"/>
      <point x="169" y="1689"/>
      <point x="169" y="1474" type="curve" smooth="yes"/>
      <point x="169" y="1423" type="line"/>
      <point x="373" y="1423" type="line"/>
      <point x="373" y="1473"/>
      <point x="394" y="1662"/>
      <point x="481" y="1666" type="curve" smooth="yes"/>
      <point x="553" y="1670"/>
      <point x="584" y="1616"/>
      <point x="584" y="1524" type="curve" smooth="yes"/>
      <point x="584" y="1402"/>
      <point x="516" y="1326"/>
      <point x="454" y="1229" type="curve" smooth="yes"/>
      <point x="161" y="771" type="line"/>
    </contour>
  </outline>
</glyph>
<glyph name="acute" format="1">
  <advance width="610"/>
  <unicode hex="00B4"/>
  <outline>
    <contour>
      <point x="115" y="1249" type="line"/>
      <point x="273" y="1249" type="line"/>
      <point x="520" y="1658" type="line"/>
      <point x="237" y="1658" type="line"/>
    </contour>
  </outline>
</glyph>
<glyph name="paragraph" format="1">
  <advance width="1036"/>
  <unicode hex="00B6"/>
  <outline>
    <contour>
      <point x="397" y="-196" type="line"/>
      <point x="577" y="-196" type="line"/>
      <point x="577" y="1514" type="line"/>
      <point x="729" y="1514" type="line"/>
      <point x="729" y="-196" type="line"/>
      <point x="904" y="-196" type="line"/>
      <point x="904" y="1658" type="line"/>
      <point x="456" y="1658" type="line" smooth="yes"/>
      <point x="235" y="1658"/>
      <point x="70" y="1573"/>
      <point x="70" y="1341" type="curve" smooth="yes"/>
      <point x="70" y="1141"/>
      <point x="205" y="1030"/>
      <point x="397" y="1028" type="curve"/>
    </contour>
  </outline>
</glyph>
<glyph name="ordmasculine" format="1">
  <advance width="953"/>
  <unicode hex="00BA"/>
  <outline>
    <contour>
      <point x="476" y="642" type="curve" smooth="yes"/>
      <point x="698" y="642"/>
      <point x="814" y="783"/>
      <point x="814" y="1006" type="curve" smooth="yes"/>
      <point x="814" y="1321" type="line" smooth="yes"/>
      <point x="814" y="1544"/>
      <point x="698" y="1684"/>
      <point x="476" y="1684" type="curve" smooth="yes"/>
      <point x="246" y="1684"/>
      <point x="139" y="1551"/>
      <point x="139" y="1321" type="curve" smooth="yes"/>
      <point x="139" y="1006" type="line" smooth="yes"/>
      <point x="139" y="776"/>
      <point x="246" y="642"/>
    </contour>
    <contour>
      <point x="474" y="830" type="curve" smooth="yes"/>
      <point x="381" y="830"/>
      <point x="369" y="917"/>
      <point x="369" y="1023" type="curve" smooth="yes"/>
      <point x="369" y="1303" type="line" smooth="yes"/>
      <point x="369" y="1409"/>
      <point x="381" y="1496"/>
      <point x="474" y="1496" type="curve" smooth="yes"/>
      <point x="569" y="1496"/>
      <point x="576" y="1411"/>
      <point x="576" y="1303" type="curve" smooth="yes"/>
      <point x="576" y="1023" type="line" smooth="yes"/>
      <point x="576" y="916"/>
      <point x="568" y="830"/>
    </contour>
  </outline>
</glyph>
<glyph name="onequarter" format="1">
  <advance width="1551"/>
  <unicode hex="00BC"/>
  <outline>
    <contour>
      <point x="1155" y="1" type="line"/>
      <point x="1329" y="1" type="line"/>
      <point x="1329" y="234" type="line"/>
      <point x="1442" y="234" type="line"/>
      <point x="1442" y="368" type="line"/>
      <point x="1329" y="368" type="line"/>
      <point x="1329" y="876" type="line"/>
      <point x="1173" y="876" type="line"/>
      <point x="870" y="364" type="line"/>
      <point x="870" y="234" type="line"/>
      <point x="1155" y="234" type="line"/>
    </contour>
    <contour>
      <point x="233" y="829" type="line"/>
      <point x="419" y="829" type="line"/>
      <point x="419" y="1658" type="line"/>
      <point x="338" y="1658" type="line"/>
      <point x="284" y="1590"/>
      <point x="211" y="1536"/>
      <point x="113" y="1485" type="curve"/>
      <point x="113" y="1351" type="line"/>
      <point x="233" y="1376" type="line"/>
    </contour>
    <contour>
      <point x="323" y="0" type="line"/>
      <point x="506" y="0" type="line"/>
      <point x="1143" y="1658" type="line"/>
      <point x="959" y="1658" type="line"/>
    </contour>
    <contour>
      <point x="1002" y="368" type="line"/>
      <point x="1155" y="644" type="line"/>
      <point x="1155" y="368" type="line"/>
    </contour>
  </outline>
</glyph>
<glyph name="threequarters" format="1">
  <advance width="1551"/>
  <unicode hex="00BE"/>
  <outline>
    <contour>
      <point x="330" y="867" type="curve" smooth="yes"/>
      <point x="476" y="867"/>
      <point x="555" y="953"/>
      <point x="555" y="1101" type="curve" smooth="yes"/>
      <point x="555" y="1208"/>
      <point x="496" y="1262"/>
      <point x="397" y="1272" type="curve"/>
      <point x="485" y="1278"/>
      <point x="553" y="1337"/>
      <point x="553" y="1442" type="curve" smooth="yes"/>
      <point x="553" y="1587"/>
      <point x="478" y="1672"/>
      <point x="332" y="1672" type="curve" smooth="yes"/>
      <point x="185" y="1672"/>
      <point x="99" y="1591"/>
      <point x="99" y="1438" type="curve"/>
      <point x="264" y="1438" type="line"/>
      <point x="264" y="1494"/>
      <point x="269" y="1544"/>
      <point x="326" y="1544" type="curve" smooth="yes"/>
      <point x="380" y="1544"/>
      <point x="384" y="1495"/>
      <point x="384" y="1436" type="curve" smooth="yes"/>
      <point x="384" y="1353"/>
      <point x="354" y="1327"/>
      <point x="262" y="1327" type="curve"/>
      <point x="262" y="1208" type="line"/>
      <point x="353" y="1208"/>
      <point x="383" y="1184"/>
      <point x="383" y="1100" type="curve" smooth="yes"/>
      <point x="383" y="1044"/>
      <point x="379" y="994"/>
      <point x="327" y="994" type="curve" smooth="yes"/>
      <point x="274" y="994"/>
      <point x="264" y="1041"/>
      <point x="264" y="1100" type="curve"/>
      <point x="99" y="1100" type="line"/>
      <point x="99" y="956"/>
      <point x="182" y="867"/>
    </contour>
    <contour>
      <point x="1200" y="1" type="line"/>
      <point x="1374" y="1" type="line"/>
      <point x="1374" y="234" type="line"/>
      <point x="1487" y="234" type="line"/>
      <point x="1487" y="368" type="line"/>
      <point x="1374" y="368" type="line"/>
      <point x="1374" y="876" type="line"/>
      <point x="1218" y="876" type="line"/>
      <point x="914" y="364" type="line"/>
      <point x="914" y="234" type="line"/>
      <point x="1200" y="234" type="line"/>
    </contour>
    <contour>
      <point x="375" y="0" type="line"/>
      <point x="558" y="0" type="line"/>
      <point x="1195" y="1658" type="line"/>
      <point x="1011" y="1658" type="line"/>
    </contour>
    <contour>
      <point x="1047" y="368" type="line"/>
      <point x="1200" y="644" type="line"/>
      <point x="1200" y="368" type="line"/>
    </contour>
  </outline>
</glyph>
<glyph name="questiondown" format="1">
  <advance width="1066"/>
  <unicode hex="00BF"/>
  <outline>
    <contour>
      <point x="567" y="-378" type="curve" smooth="yes"/>
      <point x="850" y="-378"/>
      <point x="992" y="-202"/>
      <point x="958" y="48" type="curve" smooth="yes"/>
      <point x="958" y="75"/>
      <point x="945" y="133"/>
      <point x="937" y="164" type="curve"/>
      <point x="680" y="111" type="line"/>
      <point x="686" y="94"/>
      <point x="696" y="42"/>
      <point x="696" y="23" type="curve" smooth="yes"/>
      <point x="706" y="-70"/>
      <point x="659" y="-135"/>
      <point x="565" y="-135" type="curve" smooth="yes"/>
      <point x="474" y="-135"/>
      <point x="410" y="-70"/>
      <point x="408" y="36" type="curve" smooth="yes"/>
      <point x="401" y="268"/>
      <point x="577" y="462"/>
      <point x="756" y="620" type="curve"/>
      <point x="756" y="880" type="line"/>
      <point x="503" y="880" type="line"/>
      <point x="503" y="682" type="line"/>
      <point x="310" y="509"/>
      <point x="132" y="310"/>
      <point x="132" y="45" type="curve" smooth="yes"/>
      <point x="132" y="-221"/>
      <point x="286" y="-378"/>
    </contour>
    <contour>
      <point x="489" y="1032" type="line"/>
      <point x="765" y="1032" type="line"/>
      <point x="765" y="1304" type="line"/>
      <point x="489" y="1304" type="line"/>
    </contour>
  </outline>
</glyph>
<glyph name="Eth" format="1">
  <advance width="1091"/>
  <unicode hex="00D0"/>
  <outline>
    <contour>
      <point x="419" y="212" type="line"/>
      <point x="419" y="775" type="line"/>
      <point x="518" y="775" type="line"/>
      <point x="518" y="934" type="line"/>
      <point x="419" y="934" type="line"/>
      <point x="419" y="1442" type="line"/>
      <point x="501" y="1442" type="line" smooth="yes"/>
      <point x="704" y="1442"/>
      <point x="721" y="1361"/>
      <point x="721" y="1152" type="curve" smooth="yes"/>
      <point x="721" y="546" type="line" smooth="yes"/>
      <point x="721" y="325"/>
      <point x="718" y="212"/>
      <point x="505" y="212" type="curve" smooth="yes"/>
    </contour>
    <contour>
      <point x="117" y="0" type="line"/>
      <point x="515" y="0" type="line" smooth="yes"/>
      <point x="901" y="0"/>
      <point x="1028" y="175"/>
      <point x="1028" y="543" type="curve" smooth="yes"/>
      <point x="1028" y="1141" type="line" smooth="yes"/>
      <point x="1028" y="1499"/>
      <point x="904" y="1658"/>
      <point x="503" y="1658" type="curve" smooth="yes"/>
      <point x="117" y="1658" type="line"/>
      <point x="117" y="934" type="line"/>
      <point x="24" y="934" type="line"/>
      <point x="24" y="775" type="line"/>
      <point x="117" y="775" type="line"/>
    </contour>
  </outline>
</glyph>
<glyph name="germandbls" format="1">
  <advance width="1085"/>
  <unicode hex="00DF"/>
  <outline>
    <contour>
      <point x="495" y="-23" type="line"/>
      <point x="825" y="-23"/>
      <point x="996" y="131"/>
      <point x="996" y="469" type="curve" smooth="yes"/>
      <point x="996" y="671"/>
      <point x="886" y="822"/>
      <point x="705" y="873" type="curve"/>
      <point x="855" y="945"/>
      <point x="924" y="1060"/>
      <point x="924" y="1239" type="curve" smooth="yes"/>
      <point x="924" y="1517"/>
      <point x="788" y="1678"/>
      <point x="493" y="1678" type="curve" smooth="yes"/>
      <point x="222" y="1678"/>
      <point x="108" y="1479"/>
      <point x="107" y="1241" type="curve" smooth="yes"/>
      <point x="107" y="0" type="line"/>
      <point x="387" y="0" type="line"/>
      <point x="387" y="1244" type="line" smooth="yes"/>
      <point x="386" y="1372"/>
      <point x="411" y="1466"/>
      <point x="523" y="1466" type="curve" smooth="yes"/>
      <point x="633" y="1466"/>
      <point x="669" y="1376"/>
      <point x="669" y="1237" type="curve" smooth="yes"/>
      <point x="669" y="1083"/>
      <point x="623" y="959"/>
      <point x="501" y="959" type="curve"/>
      <point x="502" y="736" type="line"/>
      <point x="636" y="736"/>
      <point x="714" y="636"/>
      <point x="717" y="486" type="curve" smooth="yes"/>
      <point x="723" y="283"/>
      <point x="666" y="199"/>
      <point x="495" y="199" type="curve"/>
    </contour>
  </outline>
</glyph>
<glyph name="Hbar" format="1">
  <advance width="1134"/>
  <unicode hex="0126"/>
  <outline>
    <contour>
      <point x="105" y="0" type="line"/>
      <point x="407" y="0" type="line"/>
      <point x="407" y="750" type="line"/>
      <point x="737" y="750" type="line"/>
      <point x="737" y="0" type="line"/>
      <point x="1039" y="0" type="line"/>
      <point x="1039" y="1259" type="line"/>
      <point x="1131" y="1259" type="line"/>
      <point x="1131" y="1382" type="line"/>
      <point x="1039" y="1382" type="line"/>
      <point x="1039" y="1658" type="line"/>
      <point x="737" y="1658" type="line"/>
      <point x="737" y="1382" type="line"/>
      <point x="407" y="1382" type="line"/>
      <point x="407" y="1658" type="line"/>
      <point x="105" y="1658" type="line"/>
      <point x="105" y="1382" type="line"/>
      <point x="3" y="1382" type="line"/>
      <point x="3" y="1259" type="line"/>
      <point x="105" y="1259" type="line"/>
    </contour>
    <contour>
      <point x="407" y="965" type="line"/>
      <point x="407" y="1259" type="line"/>
      <point x="737" y="1259" type="line"/>
      <point x="737" y="965" type="line"/>
    </contour>
  </outline>
</glyph>
<glyph name="Eng" format="1">
  <advance width="1119"/>
  <unicode hex="014A"/>
  <outline>
    <contour>
      <point x="523" y="-407" type="line"/>
      <point x="635" y="-407" type="line" smooth="yes"/>
      <point x="923" y="-407"/>
      <point x="991" y="-266"/>
      <point x="991" y="0" type="curve" smooth="yes"/>
      <point x="991" y="1658" type="line"/>
      <point x="750" y="1658" type="line"/>
      <point x="750" y="719" type="line"/>
      <point x="335" y="1658" type="line"/>
      <point x="127" y="1658" type="line"/>
      <point x="127" y="0" type="line"/>
      <point x="375" y="0" type="line"/>
      <point x="375" y="987" type="line"/>
      <point x="755" y="124" type="line"/>
      <point x="755" y="2" type="line" smooth="yes"/>
      <point x="755" y="-161"/>
      <point x="723" y="-216"/>
      <point x="523" y="-215" type="curve"/>
    </contour>
  </outline>
</glyph>
<glyph name="hungarumlaut" format="1">
  <advance width="727"/>
  <unicode hex="02DD"/>
  <outline>
    <contour>
      <point x="156" y="1264" type="line"/>
      <point x="297" y="1264" type="line"/>
      <point x="480" y="1658" type="line"/>
      <point x="254" y="1658" type="line"/>
    </contour>
    <contour>
      <point x="467" y="1264" type="line"/>
      <point x="611" y="1264" type="line"/>
      <point x="853" y="1658" type="line"/>
      <point x="592" y="1658" type="line"/>
    </contour>
  </outline>
</glyph>
<glyph name="uni030C" format="1">
  <advance width="278"/>
  <unicode hex="030C"/>
  <outline>
    <contour>
      <point x="63" y="1291" type="line"/>
      <point x="337" y="1291" type="line"/>
      <point x="517" y="1658" type="line"/>
      <point x="312" y="1658" type="line"/>
      <point x="200" y="1427" type="line"/>
      <point x="89" y="1658" type="line"/>
      <point x="-114" y="1658" type="line"/>
    </contour>
  </outline>
</glyph>
<glyph name="pi" format="1">
  <advance width="1155"/>
  <unicode hex="03C0"/>
  <outline>
    <contour>
      <point x="449" y="988" type="line"/>
      <point x="646" y="988" type="line"/>
      <point x="646" y="288" type="line" smooth="yes"/>
      <point x="646" y="81"/>
      <point x="731" y="-20"/>
      <point x="1055" y="-20" type="curve"/>
      <point x="1069" y="185" type="line"/>
      <point x="948" y="185"/>
      <point x="926" y="218"/>
      <point x="926" y="393" type="curve" smooth="yes"/>
      <point x="926" y="988" type="line"/>
      <point x="1080" y="988" type="line"/>
      <point x="1080" y="1184" type="line"/>
      <point x="38" y="1184" type="line"/>
      <point x="38" y="988" type="line"/>
      <point x="170" y="988" type="line"/>
      <point x="170" y="0" type="line"/>
      <point x="449" y="0" type="line"/>
    </contour>
  </outline>
</glyph>
<glyph name="afii10054" format="1">
  <advance width="974"/>
  <unicode hex="0405"/>
  <outline>
    <contour>
      <point x="523" y="-20" type="curve" smooth="yes"/>
      <point x="772" y="-20"/>
      <point x="939" y="146"/>
      <point x="939" y="387" type="curve" smooth="yes"/>
      <point x="939" y="607"/>
      <point x="824" y="750"/>
      <point x="693" y="867" type="curve" smooth="yes"/>
      <point x="477" y="1055" type="line" smooth="yes"/>
      <point x="401" y="1123"/>
      <point x="348" y="1181"/>
      <point x="348" y="1297" type="curve" smooth="yes"/>
      <point x="348" y="1386"/>
      <point x="395" y="1445"/>
      <point x="486" y="1450" type="curve" smooth="yes"/>
      <point x="622" y="1459"/>
      <point x="645" y="1327"/>
      <point x="651" y="1178" type="curve"/>
      <point x="910" y="1229" type="line"/>
      <point x="891" y="1474"/>
      <point x="805" y="1680"/>
      <point x="494" y="1677" type="curve" smooth="yes"/>
      <point x="233" y="1675"/>
      <point x="66" y="1528"/>
      <point x="66" y="1268" type="curve" smooth="yes"/>
      <point x="66" y="1075"/>
      <point x="140" y="969"/>
      <point x="256" y="867" type="curve" smooth="yes"/>
      <point x="473" y="678" type="line" smooth="yes"/>
      <point x="577" y="587"/>
      <point x="650" y="512"/>
      <point x="650" y="367" type="curve" smooth="yes"/>
      <point x="650" y="277"/>
      <point x="611" y="212"/>
      <point x="515" y="212" type="curve" smooth="yes"/>
      <point x="379" y="212"/>
      <point x="332" y="352"/>
      <point x="327" y="541" type="curve"/>
      <point x="63" y="486" type="line"/>
      <point x="77" y="161"/>
      <point x="221" y="-20"/>
    </contour>
  </outline>
</glyph>
<glyph name="afii10060" format="1">
  <advance width="1117"/>
  <unicode hex="040B"/>
  <outline>
    <contour>
      <point x="234" y="0" type="line"/>
      <point x="532" y="0" type="line"/>
      <point x="532" y="759" type="line"/>
      <point x="543" y="765"/>
      <point x="597" y="801"/>
      <point x="655" y="801" type="curve" smooth="yes"/>
      <point x="721" y="802"/>
      <point x="733" y="767"/>
      <point x="733" y="714" type="curve" smooth="yes"/>
      <point x="733" y="0" type="line"/>
      <point x="1013" y="0" type="line"/>
      <point x="1013" y="764" type="line" smooth="yes"/>
      <point x="1013" y="886"/>
      <point x="916" y="971"/>
      <point x="764" y="971" type="curve" smooth="yes"/>
      <point x="630" y="971"/>
      <point x="532" y="912"/>
      <point x="532" y="912" type="curve"/>
      <point x="532" y="1435" type="line"/>
      <point x="778" y="1435" type="line"/>
      <point x="778" y="1658" type="line"/>
      <point x="9" y="1658" type="line"/>
      <point x="9" y="1435" type="line"/>
      <point x="234" y="1435" type="line"/>
    </contour>
  </outline>
</glyph>
<glyph name="afii10017" format="1">
  <advance width="1049"/>
  <unicode hex="0410"/>
  <outline>
    <contour>
      <point x="30" y="0" type="line"/>
      <point x="315" y="0" type="line"/>
      <point x="383" y="385" type="line"/>
      <point x="670" y="385" type="line"/>
      <point x="737" y="0" type="line"/>
      <point x="1019" y="0" type="line"/>
      <point x="683" y="1658" type="line"/>
      <point x="367" y="1658" type="line"/>
    </contour>
    <contour>
      <point x="415" y="582" type="line"/>
      <point x="526" y="1263" type="line"/>
      <point x="638" y="582" type="line"/>
    </contour>
  </outline>
</glyph>
<glyph name="afii10022" format="1">
  <advance width="874"/>
  <unicode hex="0415"/>
  <outline>
    <contour>
      <point x="124" y="0" type="line"/>
      <point x="816" y="0" type="line"/>
      <point x="816" y="209" type="line"/>
      <point x="426" y="209" type="line"/>
      <point x="426" y="756" type="line"/>
      <point x="730" y="756" type="line"/>
      <point x="730" y="969" type="line"/>
      <point x="426" y="969" type="line"/>
      <point x="426" y="1445" type="line"/>
      <point x="812" y="1445" type="line"/>
      <point x="812" y="1658" type="line"/>
      <point x="124" y="1658" type="line"/>
    </contour>
  </outline>
</glyph>
<glyph name="afii10024" format="1">
  <advance width="1503"/>
  <unicode hex="0416"/>
  <outline>
    <contour>
      <point x="6" y="0" type="line"/>
      <point x="288" y="0" type="line"/>
      <point x="612" y="818" type="line"/>
      <point x="628" y="818" type="line"/>
      <point x="628" y="0" type="line"/>
      <point x="874" y="0" type="line"/>
      <point x="874" y="818" type="line"/>
      <point x="890" y="818" type="line"/>
      <point x="1215" y="0" type="line"/>
      <point x="1497" y="0" type="line"/>
      <point x="1131" y="840" type="line"/>
      <point x="1471" y="1658" type="line"/>
      <point x="1184" y="1658" type="line"/>
      <point x="889" y="868" type="line"/>
      <point x="874" y="868" type="line"/>
      <point x="874" y="1658" type="line"/>
      <point x="628" y="1658" type="line"/>
      <point x="628" y="868" type="line"/>
      <point x="613" y="868" type="line"/>
      <point x="318" y="1658" type="line"/>
      <point x="32" y="1658" type="line"/>
      <point x="372" y="840" type="line"/>
    </contour>
  </outline>
</glyph>
<glyph name="afii10040" format="1">
  <advance width="1343"/>
  <unicode hex="0426"/>
  <outline>
    <contour>
      <point x="1072" y="-329" type="line"/>
      <point x="1298" y="-329" type="line"/>
      <point x="1298" y="209" type="line"/>
      <point x="1106" y="209" type="line"/>
      <point x="1106" y="1658" type="line"/>
      <point x="805" y="1658" type="line"/>
      <point x="805" y="209" type="line"/>
      <point x="429" y="209" type="line"/>
      <point x="429" y="1658" type="line"/>
      <point x="127" y="1658" type="line"/>
      <point x="127" y="0" type="line"/>
      <point x="1040" y="0" type="line"/>
    </contour>
  </outline>
</glyph>
<glyph name="afii10048" format="1">
  <advance width="1577"/>
  <unicode hex="042E"/>
  <outline>
    <contour>
      <point x="1041" y="-20" type="curve" smooth="yes"/>
      <point x="1374" y="-20"/>
      <point x="1480" y="201"/>
      <point x="1480" y="538" type="curve" smooth="yes"/>
      <point x="1480" y="1126" type="line" smooth="yes"/>
      <point x="1480" y="1463"/>
      <point x="1374" y="1677"/>
      <point x="1041" y="1677" type="curve" smooth="yes"/>
      <point x="707" y="1677"/>
      <point x="603" y="1466"/>
      <point x="603" y="1126" type="curve" smooth="yes"/>
      <point x="603" y="957" type="line"/>
      <point x="418" y="957" type="line"/>
      <point x="418" y="1658" type="line"/>
      <point x="127" y="1658" type="line"/>
      <point x="127" y="0" type="line"/>
      <point x="418" y="0" type="line"/>
      <point x="418" y="733" type="line"/>
      <point x="603" y="733" type="line"/>
      <point x="603" y="538" type="line" smooth="yes"/>
      <point x="603" y="198"/>
      <point x="707" y="-20"/>
    </contour>
    <contour>
      <point x="1041" y="204" type="curve" smooth="yes"/>
      <point x="900" y="204"/>
      <point x="879" y="313"/>
      <point x="879" y="455" type="curve" smooth="yes"/>
      <point x="879" y="1208" type="line" smooth="yes"/>
      <point x="879" y="1351"/>
      <point x="900" y="1454"/>
      <point x="1041" y="1454" type="curve" smooth="yes"/>
      <point x="1183" y="1454"/>
      <point x="1203" y="1351"/>
      <point x="1203" y="1208" type="curve" smooth="yes"/>
      <point x="1203" y="455" type="line" smooth="yes"/>
      <point x="1203" y="313"/>
      <point x="1183" y="204"/>
    </contour>
  </outline>
</glyph>
<glyph name="afii10067" format="1">
  <advance width="938"/>
  <unicode hex="0432"/>
  <outline>
    <contour>
      <point x="108" y="0" type="line"/>
      <point x="482" y="0" type="line" smooth="yes"/>
      <point x="785" y="0"/>
      <point x="879" y="126"/>
      <point x="879" y="344" type="curve" smooth="yes"/>
      <point x="879" y="487"/>
      <point x="840" y="611"/>
      <point x="682" y="645" type="curve"/>
      <point x="803" y="679"/>
      <point x="851" y="761"/>
      <point x="849" y="896" type="curve" smooth="yes"/>
      <point x="847" y="1056"/>
      <point x="777" y="1184"/>
      <point x="484" y="1184" type="curve" smooth="yes"/>
      <point x="108" y="1184" type="line"/>
    </contour>
    <contour>
      <point x="383" y="182" type="line"/>
      <point x="383" y="540" type="line"/>
      <point x="449" y="540" type="line" smooth="yes"/>
      <point x="540" y="540"/>
      <point x="605" y="536"/>
      <point x="605" y="353" type="curve" smooth="yes"/>
      <point x="605" y="194"/>
      <point x="528" y="182"/>
      <point x="443" y="182" type="curve" smooth="yes"/>
    </contour>
    <contour>
      <point x="383" y="715" type="line"/>
      <point x="383" y="1010" type="line"/>
      <point x="451" y="1010" type="line" smooth="yes"/>
      <point x="549" y="1010"/>
      <point x="593" y="968"/>
      <point x="593" y="867" type="curve" smooth="yes"/>
      <point x="593" y="758"/>
      <point x="554" y="715"/>
      <point x="473" y="715" type="curve" smooth="yes"/>
    </contour>
  </outline>
</glyph>
<glyph name="afii10074" format="1">
  <advance width="991"/>
  <unicode hex="0438"/>
  <outline>
    <contour>
      <point x="107" y="0" type="line"/>
      <point x="330" y="0" type="line"/>
      <point x="656" y="710" type="line"/>
      <point x="656" y="0" type="line"/>
      <point x="884" y="0" type="line"/>
      <point x="884" y="1184" type="line"/>
      <point x="666" y="1184" type="line"/>
      <point x="335" y="477" type="line"/>
      <point x="335" y="1184" type="line"/>
      <point x="107" y="1184" type="line"/>
    </contour>
  </outline>
</glyph>
<glyph name="afii10083" format="1">
  <advance width="890"/>
  <unicode hex="0441"/>
  <outline>
    <contour>
      <point x="462" y="-19" type="curve" smooth="yes"/>
      <point x="713" y="-19"/>
      <point x="822" y="110"/>
      <point x="822" y="351" type="curve" smooth="yes"/>
      <point x="822" y="463" type="line"/>
      <point x="561" y="463" type="line"/>
      <point x="561" y="339" type="line" smooth="yes"/>
      <point x="561" y="244"/>
      <point x="544" y="185"/>
      <point x="465" y="185" type="curve" smooth="yes"/>
      <point x="394" y="185"/>
      <point x="365" y="221"/>
      <point x="365" y="376" type="curve" smooth="yes"/>
      <point x="365" y="801" type="line" smooth="yes"/>
      <point x="365" y="952"/>
      <point x="386" y="1000"/>
      <point x="465" y="1000" type="curve" smooth="yes"/>
      <point x="536" y="1000"/>
      <point x="561" y="959"/>
      <point x="561" y="839" type="curve" smooth="yes"/>
      <point x="561" y="741" type="line"/>
      <point x="822" y="741" type="line"/>
      <point x="822" y="837" type="line" smooth="yes"/>
      <point x="822" y="1082"/>
      <point x="718" y="1202"/>
      <point x="462" y="1202" type="curve" smooth="yes"/>
      <point x="183" y="1202"/>
      <point x="85" y="1035"/>
      <point x="85" y="764" type="curve" smooth="yes"/>
      <point x="85" y="421" type="line" smooth="yes"/>
      <point x="85" y="150"/>
      <point x="182" y="-19"/>
    </contour>
  </outline>
</glyph>
<glyph name="afii10089" format="1">
  <advance width="954"/>
  <unicode hex="0447"/>
  <outline>
    <contour>
      <point x="567" y="0" type="line"/>
      <point x="846" y="0" type="line"/>
      <point x="846" y="1184" type="line"/>
      <point x="567" y="1184" type="line"/>
      <point x="567" y="643" type="line"/>
      <point x="539" y="640"/>
      <point x="514" y="639"/>
      <point x="494" y="639" type="curve" smooth="yes"/>
      <point x="378" y="640"/>
      <point x="356" y="686"/>
      <point x="356" y="767" type="curve" smooth="yes"/>
      <point x="356" y="1184" type="line"/>
      <point x="77" y="1184" type="line"/>
      <point x="77" y="760" type="line" smooth="yes"/>
      <point x="77" y="542"/>
      <point x="198" y="461"/>
      <point x="432" y="461" type="curve" smooth="yes"/>
      <point x="476" y="461"/>
      <point x="521" y="464"/>
      <point x="567" y="469" type="curve"/>
    </contour>
  </outline>
</glyph>
<glyph name="afii10090" format="1">
  <advance width="1372"/>
  <unicode hex="0448"/>
  <outline>
    <contour>
      <point x="107" y="0" type="line"/>
      <point x="1264" y="0" type="line"/>
      <point x="1264" y="1184" type="line"/>
      <point x="999" y="1184" type="line"/>
      <point x="999" y="194" type="line"/>
      <point x="815" y="194" type="line"/>
      <point x="815" y="1184" type="line"/>
      <point x="549" y="1184" type="line"/>
      <point x="549" y="194" type="line"/>
      <point x="373" y="194" type="line"/>
      <point x="373" y="1184" type="line"/>
      <point x="107" y="1184" type="line"/>
    </contour>
  </outline>
</glyph>
<glyph name="afii10091" format="1">
  <advance width="1488"/>
  <unicode hex="0449"/>
  <outline>
    <contour>
      <point x="1223" y="-313" type="line"/>
      <point x="1424" y="-313" type="line"/>
      <point x="1424" y="185" type="line"/>
      <point x="1265" y="185" type="line"/>
      <point x="1265" y="1184" type="line"/>
      <point x="998" y="1184" type="line"/>
      <point x="998" y="185" type="line"/>
      <point x="815" y="185" type="line"/>
      <point x="815" y="1184" type="line"/>
      <point x="549" y="1184" type="line"/>
      <point x="549" y="185" type="line"/>
      <point x="374" y="185" type="line"/>
      <point x="374" y="1184" type="line"/>
      <point x="107" y="1184" type="line"/>
      <point x="107" y="0" type="line"/>
      <point x="1202" y="0" type="line"/>
    </contour>
  </outline>
</glyph>
<glyph name="afii10092" format="1">
  <advance width="1060"/>
  <unicode hex="044A"/>
  <outline>
    <contour>
      <point x="235" y="0" type="line"/>
      <point x="520" y="0" type="line" smooth="yes"/>
      <point x="873" y="0"/>
      <point x="1011" y="84"/>
      <point x="1011" y="348" type="curve" smooth="yes"/>
      <point x="1011" y="636"/>
      <point x="859" y="697"/>
      <point x="533" y="699" type="curve" smooth="yes"/>
      <point x="514" y="699" type="line"/>
      <point x="514" y="1184" type="line"/>
      <point x="0" y="1184" type="line"/>
      <point x="0" y="987" type="line"/>
      <point x="235" y="987" type="line"/>
    </contour>
    <contour>
      <point x="514" y="161" type="line"/>
      <point x="514" y="534" type="line"/>
      <point x="525" y="534" type="line" smooth="yes"/>
      <point x="704" y="532"/>
      <point x="758" y="494"/>
      <point x="758" y="348" type="curve" smooth="yes"/>
      <point x="758" y="193"/>
      <point x="695" y="162"/>
      <point x="518" y="161" type="curve" smooth="yes"/>
    </contour>
  </outline>
</glyph>
<glyph name="afii10094" format="1">
  <advance width="925"/>
  <unicode hex="044C"/>
  <outline>
    <contour>
      <point x="107" y="0" type="line"/>
      <point x="392" y="0" type="line" smooth="yes"/>
      <point x="745" y="0"/>
      <point x="883" y="84"/>
      <point x="883" y="348" type="curve" smooth="yes"/>
      <point x="883" y="636"/>
      <point x="732" y="697"/>
      <point x="406" y="699" type="curve" smooth="yes"/>
      <point x="400" y="699"/>
      <point x="393" y="699"/>
      <point x="387" y="699" type="curve"/>
      <point x="387" y="1184" type="line"/>
      <point x="107" y="1184" type="line"/>
    </contour>
    <contour>
      <point x="387" y="161" type="curve"/>
      <point x="387" y="534" type="line"/>
      <point x="391" y="534"/>
      <point x="394" y="534"/>
      <point x="398" y="534" type="curve" smooth="yes"/>
      <point x="576" y="532"/>
      <point x="631" y="494"/>
      <point x="631" y="348" type="curve" smooth="yes"/>
      <point x="631" y="193"/>
      <point x="568" y="162"/>
      <point x="391" y="161" type="curve" smooth="yes"/>
      <point x="390" y="161"/>
      <point x="388" y="161"/>
    </contour>
  </outline>
</glyph>
<glyph name="afii10097" format="1">
  <advance width="968"/>
  <unicode hex="044F"/>
  <outline>
    <contour>
      <point x="24" y="0" type="line"/>
      <point x="324" y="0" type="line"/>
      <point x="488" y="448" type="line"/>
      <point x="519" y="447"/>
      <point x="555" y="446"/>
      <point x="581" y="446" type="curve"/>
      <point x="581" y="0" type="line"/>
      <point x="861" y="0" type="line"/>
      <point x="861" y="1184" type="line"/>
      <point x="536" y="1184" type="line" smooth="yes"/>
      <point x="203" y="1183"/>
      <point x="75" y="1064"/>
      <point x="75" y="820" type="curve" smooth="yes"/>
      <point x="75" y="658"/>
      <point x="124" y="540"/>
      <point x="229" y="495" type="curve"/>
    </contour>
    <contour>
      <point x="568" y="608" type="curve"/>
      <point x="392" y="610"/>
      <point x="328" y="678"/>
      <point x="328" y="821" type="curve" smooth="yes"/>
      <point x="328" y="969"/>
      <point x="399" y="1025"/>
      <point x="570" y="1025" type="curve" smooth="yes"/>
      <point x="573" y="1025"/>
      <point x="579" y="1025"/>
      <point x="581" y="1025" type="curve"/>
      <point x="581" y="608" type="line"/>
      <point x="578" y="608"/>
      <point x="571" y="608"/>
    </contour>
  </outline>
</glyph>
<glyph name="uni0490" format="1">
  <advance width="846"/>
  <unicode hex="0490"/>
  <outline>
    <contour>
      <point x="127" y="0" type="line"/>
      <point x="429" y="0" type="line"/>
      <point x="429" y="1435" type="line"/>
      <point x="822" y="1435" type="line"/>
      <point x="822" y="1906" type="line"/>
      <point x="640" y="1906" type="line"/>
      <point x="641" y="1658" type="line"/>
      <point x="127" y="1658" type="line"/>
    </contour>
  </outline>
</glyph>
<glyph name="quoteright" format="1">
  <advance width="456"/>
  <unicode hex="2019"/>
  <outline>
    <contour>
      <point x="166" y="1088" type="line"/>
      <point x="339" y="1088"/>
      <point x="393" y="1215"/>
      <point x="397" y="1443" type="curve" smooth="yes"/>
      <point x="398" y="1465"/>
      <point x="399" y="1630"/>
      <point x="399" y="1658" type="curve"/>
      <point x="125" y="1658" type="line"/>
      <point x="125" y="1396" type="line"/>
      <point x="252" y="1396" type="line"/>
      <point x="252" y="1257"/>
      <point x="228" y="1184"/>
      <point x="133" y="1184" type="curve"/>
    </contour>
  </outline>
</glyph>
<glyph name="estimated" format="1">
  <advance width="910"/>
  <unicode hex="212E"/>
  <outline>
    <contour>
      <point x="487" y="-19" type="curve" smooth="yes"/>
      <point x="740" y="-19"/>
      <point x="829" y="68"/>
      <point x="829" y="310" type="curve" smooth="yes"/>
      <point x="829" y="433" type="line"/>
      <point x="665" y="433" type="line"/>
      <point x="665" y="277" type="line" smooth="yes"/>
      <point x="665" y="138"/>
      <point x="660" y="59"/>
      <point x="509" y="59" type="curve" smooth="yes"/>
      <point x="347" y="59"/>
      <point x="342" y="138"/>
      <point x="342" y="284" type="curve" smooth="yes"/>
      <point x="342" y="578" type="line"/>
      <point x="831" y="578" type="line"/>
      <point x="831" y="773" type="line" smooth="yes"/>
      <point x="831" y="1067"/>
      <point x="760" y="1202"/>
      <point x="471" y="1202" type="curve" smooth="yes"/>
      <point x="197" y="1202"/>
      <point x="84" y="1082"/>
      <point x="84" y="799" type="curve" smooth="yes"/>
      <point x="84" y="381" type="line" smooth="yes"/>
      <point x="84" y="101"/>
      <point x="207" y="-19"/>
    </contour>
    <contour>
      <point x="342" y="660" type="line"/>
      <point x="342" y="887" type="line" smooth="yes"/>
      <point x="342" y="1040"/>
      <point x="356" y="1119"/>
      <point x="472" y="1119" type="curve" smooth="yes"/>
      <point x="586" y="1119"/>
      <point x="602" y="1036"/>
      <point x="602" y="920" type="curve" smooth="yes"/>
      <point x="602" y="660" type="line"/>
    </contour>
  </outline>
</glyph>
<glyph name="summation" format="1">
  <advance width="857"/>
  <unicode hex="2211"/>
  <outline>
    <contour>
      <point x="52" y="-390" type="line"/>
      <point x="779" y="-390" type="line"/>
      <point x="779" y="-181" type="line"/>
      <point x="373" y="-181" type="line"/>
      <point x="633" y="656" type="line"/>
      <point x="380" y="1445" type="line"/>
      <point x="774" y="1445" type="line"/>
      <point x="774" y="1658" type="line"/>
      <point x="52" y="1658" type="line"/>
      <point x="349" y="654" type="line"/>
    </contour>
  </outline>
</glyph>
<glyph name="minus" format="1">
  <advance width="880"/>
  <unicode hex="2212"/>
  <outline>
    <contour>
      <point x="116" y="726" type="line"/>
      <point x="764" y="726" type="line"/>
      <point x="764" y="899" type="line"/>
      <point x="116" y="899" type="line"/>
    </contour>
  </outline>
</glyph>
<glyph name="notequal" format="1">
  <advance width="887"/>
  <unicode hex="2260"/>
  <outline>
    <contour>
      <point x="116" y="0" type="line"/>
      <point x="310" y="0" type="line"/>
      <point x="463" y="542" type="line"/>
      <point x="768" y="542" type="line"/>
      <point x="768" y="731" type="line"/>
      <point x="517" y="731" type="line"/>
      <point x="570" y="918" type="line"/>
      <point x="768" y="918" type="line"/>
      <point x="768" y="1108" type="line"/>
      <point x="624" y="1108" type="line"/>
      <point x="780" y="1658" type="line"/>
      <point x="585" y="1658" type="line"/>
      <point x="429" y="1108" type="line"/>
      <point x="127" y="1108" type="line"/>
      <point x="127" y="918" type="line"/>
      <point x="375" y="918" type="line"/>
      <point x="322" y="731" type="line"/>
      <point x="127" y="731" type="line"/>
      <point x="127" y="542" type="line"/>
      <point x="268" y="542" type="line"/>
    </contour>
  </outline>
</glyph>
<glyph name="uniFB02" format="1">
  <advance width="1102"/>
  <unicode hex="FB02"/>
  <outline>
    <contour>
      <point x="439" y="981" type="line"/>
      <point x="594" y="981" type="line"/>
      <point x="594" y="1184" type="line"/>
      <point x="439" y="1184" type="line"/>
      <point x="439" y="1184"/>
      <point x="439" y="1249"/>
      <point x="439" y="1249" type="curve" smooth="yes"/>
      <point x="439" y="1365"/>
      <point x="443" y="1449"/>
      <point x="618" y="1449" type="curve" smooth="yes"/>
      <point x="646" y="1449"/>
      <point x="679" y="1447"/>
      <point x="717" y="1442" type="curve"/>
      <point x="717" y="0" type="line"/>
      <point x="997" y="0" type="line"/>
      <point x="997" y="1596" type="line"/>
      <point x="828" y="1631"/>
      <point x="693" y="1646"/>
      <point x="585" y="1646" type="curve" smooth="yes"/>
      <point x="175" y="1646"/>
      <point x="160" y="1427"/>
      <point x="160" y="1247" type="curve" smooth="yes"/>
      <point x="160" y="1184" type="line"/>
      <point x="32" y="1184" type="line"/>
      <point x="32" y="981" type="line"/>
      <point x="160" y="981" type="line"/>
      <point x="160" y="0" type="line"/>
      <point x="439" y="0" type="line"/>
    </contour>
  </outline>
</glyph>
